<?xml version="1.0" encoding="utf-8"?>
<!-- Generator: Adobe Illustrator 27.1.1, SVG Export Plug-In . SVG Version: 6.00 Build 0)  -->
<svg version="1.1" id="Layer_1" xmlns="http://www.w3.org/2000/svg" xmlns:xlink="http://www.w3.org/1999/xlink" x="0px" y="0px"
	 viewBox="0 0 1920 1080" style="enable-background:new 0 0 1920 1080;" xml:space="preserve">
<style type="text/css">
	.st0{fill:#84302D;}
</style>
<g>
	<path class="st0" d="M791.68,359.55c-1.63-5.17-3.87-6.46-9.03-3.23c-12.81,8.03-25.1,8.17-36.94,3.35
		c-15.12-6.16-27.57-15.95-40.62-24.86c-31.99-21.84-68.98-30.18-111.96-22.92c-44.92,7.59-85.31,26.59-117.42,64.11
		c-32.32,37.76-39.93,83.11-20.29,115.49c20.65,34.03,68.11,48.94,110.55,34.98c5.58-1.83,9.01-3.5,5.04-9.6
		c-24.71,8.94-47.57,9.04-68.68,0.94c-30.59-11.75-50.63-32.87-49.46-68.55c2.33-70.53,79.36-126.88,143.93-106.2
		c19.99,6.4,37.46,16.9,55.88,25.84c23.23,11.28,47.44,19.7,76.83,14.42c6.31-1.13,12.81-3.98,19.44-3.21
		c-1.55,4.32-5.13,5.98-7.82,8.27c-42.28,36.17-75.21,78.37-97.82,127.42c-21.32,46.26-44.25,91.94-73.8,135.01
		c-23.04,33.58-48.32,65.3-82.99,88.73c-23.13,15.62-47.29,23.37-72.68,20.98c-13.32-1.25-18.07-7.38-15.45-20.67
		c4.27-21.72,16.98-39.16,35.24-53.55c16.13-12.71,33.61-23,51.62-32.14c27.74-14.08,56.39-24.86,85.06-35.51
		c0.59-5.82-0.92-7.66-7.23-5.07c-12.54,5.13-25.31,9.36-37.93,14.22c-32.86,12.64-65.77,25.11-96.69,43.98
		c-20.45,12.48-37.64,28.21-49.2,49.09c-12.27,22.16-7.55,37.53,13.57,44.94c25.2,8.83,52.42,4.64,79.79-4.41
		c53.94-17.82,98.1-52.54,137.83-94.32c49.34-51.87,77.24-113.08,102.6-175.33c7.74-19.01,14.45-38.26,22.41-57.22
		C747.69,405.35,765.58,379.41,791.68,359.55z M717.59,368.57c-14.57-3.57-27.17-10.57-39.71-17.59
		c-25.14-14.08-50.45-27.81-82.08-29.44c-0.67-0.03-1.14-0.9-2.64-2.18c40.63-5.03,74.34,4.13,103.82,23.78
		c15.54,10.36,31.26,20.52,51.89,25.93C736.45,372.95,726.94,370.87,717.59,368.57z M726.59,416.19
		c-25.83,32.18-41.57,68.35-58.12,104.27c-21.56,46.81-44.15,93.26-76.16,135.87c-17.9,23.82-38.36,45.21-62.69,62.86
		c-3.77,2.73-7.46,6.36-13.23,5.21c37.89-34.49,66.53-74.43,91.25-116.95c19.25-33.1,34.17-67.68,51.29-101.51
		c16.02-31.65,34.78-61.8,60.58-87.99c2.17-2.2,3.8-5.8,7.61-5.7C728.25,413.61,727.58,414.95,726.59,416.19z"/>
	<path class="st0" d="M1360.32,628.69c-8.93,7.18-16.53,14.65-25.82,19.64c-3.51,1.89-7.28,3.86-10.58,1.55
		c-3.46-2.43-2.96-6.54-1.92-10.55c1.63-6.28,5.33-11.98,8.51-17.8c11.75-21.44,25.15-42.32,33.84-64.8
		c8.3-21.48-6.39-38.66-28.81-34.72c-14.37,2.52-26.98,9.45-38.79,18.94c-17.12,13.77-30.67,30.55-43.77,47.73
		c-1.74,2.28-2.76,6.7-6.9,4.89c11.05-22.48,22.05-44.85,33.52-68.19c-15.06,0-28.94,0.27-42.67-0.13c-5.28-0.15-7.35,1.7-9.7,6.68
		c-12.25,26.01-25.02,51.86-37.57,77.78c-3.94,8.14-7.88,16.29-11.82,24.45c-0.5,0.38-1,0.76-1.5,1.13
		c-18.36,13.66-33.19,19.09-45.05,21.62c-16.46,3.58-27.08,0.68-31.9-2.09c-0.03-0.04-0.07-0.04-0.1-0.08
		c-0.38-0.23-0.81-0.47-1.19-0.74c-0.46-0.27-0.83-0.54-1.1-0.78c-0.24-0.16-0.4-0.35-0.61-0.51c-0.1-0.08-0.17-0.12-0.17-0.12
		c-11.23-9.53-13.83-32.33-4.66-48.48c11.94,0,24.04,0.47,36.28-0.12c14.84-0.7,29.77-2.76,44.56-8.68
		c18.45-7.43,28.69-19.69,31.01-36.84c2.13-15.95-4.97-27-21.47-32.45c-15.51-5.14-32.16-6.19-49.68-3.39
		c-39.08,6.23-69.91,26.07-89.44,63.15c-7.63,14.5-10.85,28.26-9.91,40.31c-0.03-0.01-0.05-0.02-0.08-0.03
		c-8.73,8.97-17.32,17.61-28.92,21.49c-8.6,2.88-11.3,0.54-9.83-7.86c0.96-5.46,3.5-10.53,6.08-15.67
		c16.32-32.44,32.54-64.91,49.41-98.61c-15.36,0-29.5,0.1-43.59-0.07c-3.45-0.04-5.14,1.23-6.73,4.49
		c-15.75,32.23-31.92,64.33-47.39,96.65c-0.3-0.12-0.56-0.27-0.9-0.35c-1.63,1.6-3.4,3.27-5.11,5.01
		c-7.05,7.18-14.74,13.42-24.14,16.5c-8.4,2.75-11.09,0.17-9.7-8.2c0.87-5.22,3.48-10.02,5.82-14.87
		c25.69-53.2,51.46-106.37,77.18-159.56c14.46-29.91,28.89-59.83,43.52-90.16c-15.62,0-30.58,0-46.33,0
		c-1.33,2.43-2.58,4.49-3.62,6.63c-31.78,65.28-63.56,130.56-95.31,195.86c-8.3,17.07-16.8,34.08-24.71,51.26
		c-0.05-0.04-0.09-0.08-0.14-0.12c-6.75,7.01-13.21,13.77-21.41,18.29c-5.36,2.95-11.69,7.03-16.28,3.62
		c-4.86-3.61-1.33-10.51,1.06-15.74c6.21-13.59,13.14-26.98,19.77-40.45c11.1-22.57,22.19-45.14,33.37-67.9
		c-16.43,0-32.16,0-48.05,0c-3.35,6.88-6.79,13.27-9.6,19.82c-13.21,30.86-30.59,59.49-55.75,84.05
		c-7.58,7.4-15.49,14.37-25.22,18.52c-3.9,1.66-8.32,3.74-11.49,1.26c-3.24-2.52-1.71-6.96-0.39-10.9
		c4.86-14.6,13.09-28.2,19.89-42.23c11.37-23.47,23.08-46.83,34.89-70.74c-16.37,0-31.89,0-48.02,0
		c-11.02,22.5-22.07,44.55-32.62,66.75c-7.45,15.69-17.19,30.83-21.54,47.29c-4.86,18.39,4.34,30.06,22.79,30.27
		c5.97,0.07,11.92-0.92,17.99-2.96c21.1-7.09,37.52-21.42,52.91-37.52c2.27-2.38,3.82-5.95,8.57-6.97
		c-2.19,5.16-4.12,9.48-5.85,13.85c-6.97,17.65,1.61,33.76,19.23,33.37c23.4-0.51,43.16-11.57,61.58-27.14
		c-1.78,16.13,8.96,26.3,28.62,23.64c19.88-2.69,37.39-12.13,53.23-25.53c-2.87,15.05,6.67,26.56,23.45,25.78
		c25.04-1.16,45.84-14.32,65.03-31.55c3.45,11.96,11.7,21.62,24.69,27.64c7.56,3.53,15.67,6.17,24.24,7.61
		c8.68,1.46,17.41,2.41,26.69,1.21c15.21-1.96,30.68-8.23,45.01-15.42c5.45-2.73,10.85-5.69,16.14-8.85
		c-3.02,6.26-6.03,12.5-9.07,18.81c16.67,0,32.48,0,49.09,0c7.89-22.55,23.2-41.62,37.62-61.04c13.35-17.99,26.55-36.25,44.03-51.02
		c5.29-4.47,11.91-10.95,17.91-6.87c6.09,4.15,1.09,11.55-2.02,17.73c-11.25,22.27-25.85,43.29-35.33,66.22
		c-10.28,24.85,5.07,44.32,31.23,39.53c22.36-4.09,39.81-18.3,56.65-33.76C1366.02,633,1362.07,631.4,1360.32,628.69z
		 M726.17,659.43c-9.23,6.13-17.06,5.56-24.13,1.12c-7.35-4.62-9.48-11.94-6.96-21.27c4.07-15.07,12.32-29.02,19.32-43.28
		c10.02-20.44,20.4-40.77,30.77-61.43c4.64,0,9.07,0,13.53,0c1,2.04-0.5,3.72-1.41,5.55c-14.96,30.13-30.26,60.16-44.68,90.46
		C703.32,650.09,706.64,656.32,726.17,659.43z M796.11,659.49c-7.32-5.53-7.65-13.8-4.29-23.12c6.21-17.27,15.33-33.68,23.54-50.36
		c8.46-17.2,17.11-34.34,25.72-51.57c4.95,0,9.43,0,14.87,0c-10.43,20.83-20.68,41.12-30.77,61.46
		c-6.13,12.36-12.59,24.66-17.91,37.24c-7.68,18.17-3.84,24.57,15.68,26.24C811.52,665.78,803.23,664.87,796.11,659.49z
		 M877.54,655.16c-5.93-5.69-6.03-13.04-3.01-21.33c0.03-0.03,0.06-0.05,0.08-0.08c-0.02-0.01-0.03-0.02-0.04-0.04
		c0.29-0.79,0.6-1.58,0.94-2.38c17.95-41.95,39.92-82.63,59.7-124c18.23-38.13,37.66-75.89,55.65-114.09
		c4.36-9.25,8.75-12.03,17.57-9.49c-2.36,7.85-6.83,15.29-10.52,22.9c-34.66,71.55-69.38,143.09-104.07,214.63
		c-1.05,2.16-2.14,4.33-3.04,6.53c-8.11,19.84-6.08,24.64,13.55,29.7C893.03,662.46,884.3,661.65,877.54,655.16z M960.8,656.46
		c-7.51-5.99-7.37-14.46-3.89-23.99c6.5-17.81,16.43-34.57,24.83-51.8c5.77-11.84,12.08-23.5,18.08-35.27
		c6.39-12.53,6.36-12.54,20.11-10.59c-12.59,24.7-25.14,49.28-37.66,73.87c-3.13,6.15-6.46,12.26-9.23,18.51
		c-8.72,19.69-6.28,25.44,12.27,29.97C976.2,661.99,967.36,661.7,960.8,656.46z M1170.75,532.6c10.84,6.19,13.47,18.48,7.86,30.93
		c-6.99,15.52-27.78,30.35-43.15,30.11c11.66-6.89,20.59-15.64,27.28-26.57C1169.4,556.14,1173.24,545.01,1170.75,532.6z
		 M1148.68,531.82c11.47-2.26,17.85,3.42,14.31,14.55c-9.8,30.74-32.75,54.66-70.07,49.06c7.54-18.71,17.39-36.22,32.9-50.89
		C1132.51,538.24,1139.99,533.58,1148.68,531.82z M1077.9,663.02c-34.41-7.94-47.1-37.58-30.24-72.17
		c12.25-25.25,31.43-44.16,57.89-55.17c4.3-1.79,8.74-3.93,14.23-2.06c-11.08,6.89-21.13,13.7-29.61,22.76
		c-18.77,20.08-29.76,42.49-31.8,67.42c-1.16,14.08,4.65,24.55,14.87,32.37C1075.32,657.8,1079.73,658.19,1077.9,663.02z
		 M1224.83,587.84c-9.65,20.25-19.3,40.5-28.91,60.77c-5.46,11.51-5.41,11.53-19.24,9.71c19.84-41.85,39.6-83.56,59.43-125.39
		c5.54,0,9.75,0,14.89,0C1242.15,551.5,1233.49,569.67,1224.83,587.84z M1336.55,555.7c-3.93,13.36-11.71,25.49-19.01,37.73
		c-6.54,10.95-13.17,21.87-18.08,33.41c-8.45,19.85-6.77,25.55,10.08,34.33c-6.54,2.26-12.02,2.13-17.42,0.73
		c-9.12-2.37-13.3-8.52-12.11-18.53c1.72-14.58,9.94-27.65,17-40.93c5.94-11.18,12.65-22.06,18.81-33.16
		c5.86-10.55,8.65-20.83,0.97-29.68c6.02-4.23,11-4.05,15.25-0.76C1337.19,542.82,1338.61,548.71,1336.55,555.7z"/>
	<path class="st0" d="M1500.28,655.59c27.79-19.35,33.05-52.02,11.27-69.86c-4.78-3.91-10.24-7.08-15.58-10.32
		c-7.59-4.6-15.59-8.72-21.25-15.56c-8.62-10.41-2.19-25.86,12.43-30.25c12.75-3.83,23.88,0.77,28.72,11.65
		c3.02,6.77,2.67,14.58,3.24,22.95c9.62-5.13,18.7-9.96,28.33-15.09c-2.2-11.82-9.03-18.72-18.42-22.99
		c-24.32-11.05-49.51-5.74-74.32,11.68c-25.58,17.97-30.54,45.65-12.37,64.37c7.06,7.27,15.78,12.5,24.5,17.76
		c6.5,3.92,12.81,8.17,16.48,15.01c6.24,11.63-1.03,25.95-15.26,28.33c-19.95,3.34-36.66,0.06-41.33-23.57
		c-1.27-6.42-1.74-13.12-2.63-20.12c-12.12,6.69-23.51,12.97-34.87,19.24c2,7.59,5.95,12.94,11.15,17.35
		c10.61,9,24.18,12.46,38.7,13.77C1459.78,671.82,1480.5,669.36,1500.28,655.59z M1534.55,548.98c-2.37,3.09-5.67,3.47-9.03,4.94
		c-1.31-7.05-2.28-14.14-6.31-22.32C1528.66,535.9,1533.08,541.2,1534.55,548.98z M1473.83,615.01
		c-10.24-6.15-21.48-11.06-28.74-20.84c-11.25-15.15-4.44-38.9,14.79-50.99c1.65,2.2-0.72,4.13-1.64,5.99
		c-8.95,18.08-7.29,29.56,6.78,39.97c8.3,6.14,17.61,11.08,25.91,17.21c16.31,12.05,16.81,24.07,1.1,44.54
		C1495.19,632.25,1486.26,622.48,1473.83,615.01z M1397.59,641.01c4.53-2.43,7.94-4.27,11.83-6.36c1.64,8.82,5,16.28,9.65,23.31
		C1408.56,656.44,1401.98,650.71,1397.59,641.01z"/>
	<path class="st0" d="M1424.22,508.82c12.95-20.83,26.64-41.3,39.97-61.95c0.98-1.51,2.95-2.94,2.22-4.82c-11.31,0-22.49,0-33.66,0
		c-8.36,24.75-16.56,49.01-24.75,73.27C1414.98,517.54,1419.67,516.14,1424.22,508.82z M1437.52,450c2.72,0,4.51,0,7.18,0
		c-7.74,15.83-15.26,31.21-22.78,46.6c-0.43-0.09-0.85-0.19-1.28-0.28C1426.22,481,1431.8,465.7,1437.52,450z"/>
	<path class="st0" d="M1051.49,480.06c14.8,0.05,30.71-13.69,33.7-29.1c2.36-12.16-5.69-21.92-18.07-21.9
		c-14.75,0.02-31.13,14.22-33.71,29.21C1031.26,470.8,1038.9,480.02,1051.49,480.06z M1056.7,439.19c5.67-0.22,9.11,4.63,7.95,11.21
		c-1.57,8.86-11.58,19.59-18.14,19.16c-6.69-0.44-6.09-6.01-6.3-10.41C1041.99,448.95,1050.01,439.45,1056.7,439.19z"/>
</g>
</svg>
